<svg width="88" height="54" viewBox="0 0 88 54" fill="none" xmlns="http://www.w3.org/2000/svg">
<path d="M10.224 6.336C10.224 5.664 9.96 5.08 9.432 4.584C8.92 4.088 8.192 3.84 7.248 3.84C6.448 3.84 5.816 4.008 5.352 4.344C4.888 4.664 4.656 5.104 4.656 5.664C4.656 5.952 4.712 6.216 4.824 6.456C4.936 6.68 5.128 6.888 5.4 7.08C5.688 7.256 6.056 7.416 6.504 7.56C6.968 7.704 7.552 7.84 8.256 7.968C10.016 8.288 11.36 8.824 12.288 9.576C13.216 10.328 13.68 11.44 13.68 12.912V13.2C13.68 13.984 13.536 14.696 13.248 15.336C12.976 15.96 12.576 16.496 12.048 16.944C11.52 17.392 10.88 17.736 10.128 17.976C9.376 18.216 8.528 18.336 7.584 18.336C6.48 18.336 5.504 18.184 4.656 17.88C3.824 17.56 3.128 17.128 2.568 16.584C2.008 16.024 1.584 15.376 1.296 14.64C1.008 13.888 0.864 13.072 0.864 12.192V11.472H4.032V12.048C4.032 13.056 4.32 13.864 4.896 14.472C5.488 15.064 6.4 15.36 7.632 15.36C8.592 15.36 9.304 15.152 9.768 14.736C10.232 14.32 10.464 13.824 10.464 13.248C10.464 12.976 10.416 12.72 10.32 12.48C10.224 12.224 10.056 12 9.816 11.808C9.576 11.6 9.248 11.416 8.832 11.256C8.416 11.096 7.888 10.96 7.248 10.848C6.4 10.704 5.624 10.52 4.92 10.296C4.216 10.056 3.6 9.744 3.072 9.36C2.56 8.976 2.16 8.496 1.872 7.92C1.584 7.344 1.44 6.64 1.44 5.808V5.664C1.44 4.976 1.576 4.344 1.848 3.768C2.136 3.176 2.528 2.664 3.024 2.232C3.536 1.8 4.144 1.464 4.848 1.224C5.568 0.983999 6.368 0.863999 7.248 0.863999C8.24 0.863999 9.12 1.008 9.888 1.296C10.656 1.568 11.296 1.944 11.808 2.424C12.336 2.904 12.728 3.456 12.984 4.08C13.256 4.704 13.392 5.36 13.392 6.048V6.912H10.224V6.336ZM29.6713 11.664V18H26.5033V1.2H33.0793C33.9433 1.2 34.6953 1.344 35.3353 1.632C35.9753 1.904 36.5033 2.272 36.9193 2.736C37.3513 3.184 37.6713 3.704 37.8793 4.296C38.1033 4.872 38.2153 5.464 38.2153 6.072V6.648C38.2153 7.272 38.1033 7.888 37.8793 8.496C37.6713 9.088 37.3513 9.624 36.9193 10.104C36.5033 10.568 35.9753 10.944 35.3353 11.232C34.6953 11.52 33.9433 11.664 33.0793 11.664H29.6713ZM29.6713 8.64H32.7673C33.4713 8.64 34.0233 8.448 34.4233 8.064C34.8393 7.68 35.0473 7.184 35.0473 6.576V6.288C35.0473 5.68 34.8393 5.184 34.4233 4.8C34.0233 4.416 33.4713 4.224 32.7673 4.224H29.6713V8.64ZM51.5186 1.2H54.6866V14.976H62.3186V18H51.5186V1.2ZM76.0539 1.2H87.2859V4.224H83.2539V14.976H87.2859V18H76.0539V14.976H80.0859V4.224H76.0539V1.2ZM1.296 37.2H13.392V40.224H8.928V54H5.76V40.224H1.296V37.2ZM26.0713 37.2H38.1673V40.224H33.7033V54H30.5353V40.224H26.0713V37.2ZM51.5186 37.2H62.1266V40.224H54.6866V44.064H61.8386V47.088H54.6866V50.976H62.4146V54H51.5186V37.2ZM87.3579 54H84.1899V48.96C84.1899 48.576 84.0859 48.264 83.8779 48.024C83.6859 47.784 83.3579 47.664 82.8939 47.664H79.2459V54H76.0779V37.2H82.5099C83.3739 37.2 84.1339 37.32 84.7899 37.56C85.4459 37.8 85.9899 38.136 86.4219 38.568C86.8699 38.984 87.2059 39.472 87.4299 40.032C87.6699 40.592 87.7899 41.192 87.7899 41.832V42.408C87.7899 43.096 87.6059 43.744 87.2379 44.352C86.8699 44.944 86.3019 45.4 85.5339 45.72V46.152C86.0939 46.216 86.5339 46.432 86.8539 46.8C87.1899 47.168 87.3579 47.632 87.3579 48.192V54ZM79.2459 44.64H82.2699C83.0379 44.64 83.6219 44.464 84.0219 44.112C84.4219 43.744 84.6219 43.232 84.6219 42.576V42.288C84.6219 41.728 84.4219 41.248 84.0219 40.848C83.6219 40.432 83.0379 40.224 82.2699 40.224H79.2459V44.64Z" fill="#00494D"/>
</svg>
